<?xml version="1.0" encoding="utf-8"?>
<svg xmlns="http://www.w3.org/2000/svg" width="1024" height="1024" viewBox="0 0 1024 1024" version="1.1">
  <path d="M 873.947 133.383 C 873.717 133.616 838.877 141.084 796.527 149.978 C 754.187 158.872 716.837 167.039 713.537 168.127 C 691.157 175.506 685.937 169.314 672.437 190.087 C 669.687 194.318 641.199 181.781 640.849 181.798 C 640.479 181.814 680.63 196.369 678.98 193.482 C 669.39 176.645 662.304 184.81 638.239 186.086 C 624.666 186.805 560.373 155.333 454.87 177.823 C 436.72 181.692 351.004 184.555 323.504 190.323 C 262.027 203.217 238.444 238.129 225.043 241.146 L 212.583 271.485 L 206.434 294.471 C 193.095 344.335 187.26 366.466 187.408 366.638 C 187.493 366.736 202.632 363.736 221.049 359.97 C 239.467 356.205 254.729 353.317 254.965 353.552 C 255.201 353.788 254.221 358.138 252.787 363.22 C 251.353 368.301 244.721 392.933 238.048 417.958 C 210.018 523.082 206.84 534.819 204.395 542.271 C 202.984 546.569 202.044 550.298 202.304 550.559 C 202.565 550.819 214.874 548.329 229.657 545.024 C 288.236 531.932 407.217 506.697 489.537 489.907 C 528.222 482.017 540.846 478.579 552.491 472.759 C 570.376 463.823 587.048 449.088 598.605 432.003 L 605.269 422.153 L 608.663 428.937 C 616.576 444.754 632.747 452.911 656.257 452.943 C 666.187 452.957 671.587 451.995 728.757 440.021 C 762.737 432.906 794.417 426.331 799.157 425.41 C 803.897 424.489 808.207 423.448 808.717 423.097 C 809.237 422.745 815.217 401.533 821.997 375.958 C 828.787 350.383 834.567 328.829 834.847 328.06 C 835.227 327.032 834.727 326.795 832.947 327.165 C 831.627 327.441 817.557 330.465 801.687 333.884 C 785.827 337.302 772.717 339.955 772.557 339.779 C 772.397 339.602 776.617 317.408 781.927 290.458 L 791.587 241.458 L 798.567 239.761 C 802.397 238.827 815.667 236.151 828.037 233.813 C 840.417 231.475 850.607 229.538 850.697 229.51 C 851.007 229.406 876.037 135.156 876.037 134.073 C 876.037 132.973 874.767 132.556 873.947 133.383" stroke="none" fill-rule="evenodd" style="stroke-width: 1; fill: rgb(10, 49, 97);"/>
  <path d="M 879 180.506 C 878.77 180.739 843.93 188.207 801.58 197.101 C 759.238 205.995 721.892 214.162 718.592 215.25 C 696.214 222.629 672.093 241.555 658.592 262.328 C 655.842 266.559 653.297 270.034 652.937 270.051 C 652.577 270.067 650.938 267.718 649.293 264.831 C 639.706 247.994 620.657 239.185 596.592 240.461 C 583.019 241.18 566.095 244.479 460.592 266.969 C 442.442 270.838 405.092 278.722 377.592 284.49 C 316.115 297.384 241.016 313.344 227.615 316.361 L 217.638 318.608 L 211.489 341.594 C 198.15 391.458 192.315 413.589 192.463 413.761 C 192.548 413.859 207.687 410.859 226.104 407.093 C 244.522 403.328 259.784 400.44 260.02 400.675 C 260.256 400.911 259.276 405.261 257.842 410.343 C 256.408 415.424 249.776 440.056 243.103 465.081 C 215.073 570.205 211.895 581.942 209.45 589.394 C 208.039 593.692 207.099 597.421 207.359 597.682 C 207.62 597.942 219.929 595.452 234.712 592.147 C 293.291 579.055 412.272 553.82 494.592 537.03 C 533.277 529.14 545.901 525.702 557.546 519.882 C 575.431 510.946 592.103 496.211 603.66 479.126 L 610.324 469.276 L 613.718 476.06 C 621.631 491.877 637.805 500.034 661.317 500.066 C 671.244 500.08 676.64 499.118 733.817 487.144 C 767.793 480.029 799.47 473.454 804.21 472.533 C 808.95 471.612 813.26 470.571 813.77 470.22 C 814.29 469.868 820.27 448.656 827.05 423.081 C 833.84 397.506 839.62 375.952 839.91 375.183 C 840.28 374.155 839.78 373.918 838.01 374.288 C 836.68 374.564 822.61 377.588 806.75 381.007 C 790.881 384.425 777.769 387.078 777.609 386.902 C 777.449 386.725 781.667 364.531 786.981 337.581 L 796.64 288.581 L 803.62 286.884 C 807.45 285.95 820.72 283.274 833.09 280.936 C 845.47 278.598 855.66 276.661 855.75 276.633 C 856.06 276.529 881.09 182.279 881.09 181.196 C 881.09 180.096 879.83 179.679 879 180.506" stroke="none" fill-rule="evenodd" style="stroke-width: 1; fill: rgb(211, 33, 45);"/>
  <path d="M 462.077 144.086 C 409.277 147.655 345.044 159.446 296.797 174.424 C 262.52 185.066 238.663 194.427 210.659 208.222 L 192.695 217.072 L 193.324 229.286 C 194.512 252.36 197.045 297.556 199.473 339 C 200.81 361.825 202.219 387.013 202.604 394.974 L 203.303 409.447 L 207.232 394.974 C 209.392 387.013 211.516 380.131 211.951 379.679 C 212.672 378.931 219.584 377.259 235.39 374.011 L 241.279 372.8 L 240.601 357.15 C 240.228 348.543 239.055 325.975 237.995 307 C 236.934 288.025 235.762 265.51 235.391 256.967 L 234.717 241.435 L 244.609 236.799 C 282.756 218.923 331.563 203.999 384.5 194.024 C 473.768 177.204 575.959 178.82 663.707 198.439 C 705.355 207.75 757.895 225.274 784.347 238.676 L 789.194 241.132 L 788.847 250.067 C 788.656 254.98 788.812 259.001 789.192 259.001 C 790.212 259 828.358 250.981 828.578 250.721 C 828.681 250.6 829.183 243.075 829.693 234 C 830.566 218.471 830.51 217.409 828.75 215.951 C 825.751 213.465 791.906 197.694 774.016 190.445 C 719.515 168.362 651.443 152.397 582 145.411 C 562.694 143.469 484.057 142.6 462.077 144.086" stroke="none" fill="#000000" fill-rule="evenodd"/>
  <path d="M 540.448 784.276 C 540.178 784.978 540.08 794.821 540.229 806.149 L 540.5 826.747 L 568 811.032 C 597.828 793.987 610 786.49 610 785.166 C 610 784.277 577.164 783 554.307 783 C 544.389 783 540.811 783.329 540.448 784.276" stroke="none" fill="#000000" fill-rule="evenodd"/>
  <path d="M 328.667 714.667 C 327.826 715.507 327.819 724.274 328.655 729.33 C 329.254 732.958 330.059 733.676 343.894 742.919 C 356.876 751.593 385.027 769.662 395.25 775.882 L 399 778.163 L 399 746.082 L 399 714 L 364.167 714 C 345.008 714 329.033 714.3 328.667 714.667" stroke="none" fill="#000000" fill-rule="evenodd"/>
  <path d="M 611 679.013 L 611 714.026 L 645.25 713.763 L 679.5 713.5 L 679.79 678.75 L 680.08 644 L 645.54 644 L 611 644 L 611 679.013" stroke="none" fill-rule="evenodd" fill="#000000"/>
  <path d="M 796 546.134 C 788.575 547.715 780.249 549.466 777.498 550.024 L 772.495 551.039 L 769.665 596.748 C 768.109 621.889 766.621 642.805 766.359 643.229 C 766.096 643.653 762.309 644 757.941 644 L 750 644 L 749.983 668.25 L 749.965 692.5 L 735.912 703.25 L 721.859 714 L 700.929 714 L 680 714 L 680 727.97 L 680 741.939 L 672.75 746.818 C 668.763 749.502 654.345 758.74 640.712 767.349 C 623.133 778.448 615.062 783 612.962 783 L 610 783 L 610 748.5 L 610 714 L 575 714 L 540 714 L 540 749 L 540 784 L 504.5 784 L 469 784 L 469 801 C 469 810.35 468.61 818 468.134 818 C 466.456 818 409.613 785.048 410.235 784.436 C 410.381 784.292 423.55 783.905 439.5 783.575 L 468.5 782.975 L 468.763 748.488 L 469.026 714 L 504.013 714 L 539 714 L 539 679 L 539 644 L 504 644 L 469 644 L 469 679 L 469 714 L 434 714 L 399 714 L 399 679 L 399 644 L 364 644 L 329 644 L 329 679 L 329 714 L 315.506 714 L 302.012 714 L 292.256 706.649 C 286.89 702.606 277.213 695.408 270.75 690.655 L 259 682.012 L 259 670.461 L 259 658.909 L 255.25 659.611 C 253.188 659.997 244.3 661.934 235.5 663.914 L 219.5 667.516 L 219.767 677.508 C 219.913 683.004 220.285 691.1 220.593 695.5 C 221.125 703.09 221.322 703.628 224.436 706 C 244.572 721.335 276.837 745.261 286 751.653 C 317.135 773.371 366.249 805.126 399 824.714 C 429.708 843.079 442.353 850.083 497 878.989 L 512.5 887.188 L 527.5 879.444 C 598.839 842.614 684.165 790.473 747.624 744.929 C 770.267 728.678 803.129 703.832 803.545 702.647 C 804.209 700.761 812.999 555.813 813 546.75 C 813 542.26 814.015 542.297 796 546.134" stroke="none" fill="#000000" fill-rule="evenodd"/>
  <path d="M 243.5 475.482 C 242.95 475.66 235.438 477.269 226.808 479.058 C 218.177 480.847 210.568 482.649 209.899 483.063 C 208.947 483.651 209.04 489.878 210.327 511.657 C 211.232 526.971 212.748 553.993 213.697 571.706 C 214.645 589.42 215.563 603.77 215.738 603.595 C 216.182 603.152 221.605 583.27 232.131 543.5 C 237.08 524.8 242.676 504.114 244.565 497.532 C 248.471 483.922 249.145 474.948 246.25 475.079 C 245.287 475.122 244.05 475.304 243.5 475.482" stroke="none" fill="#000000" fill-rule="evenodd"/>
  <path d="M 506.5 401.386 C 477.35 407.583 452.932 412.846 452.238 413.081 C 451.543 413.316 459.868 417.229 470.738 421.777 C 481.607 426.325 491.04 430.386 491.7 430.801 C 492.605 431.371 492.287 434.004 490.403 441.528 C 487.578 452.815 469.124 524.651 468.425 527.087 C 468.04 528.426 470.833 528.076 486.234 524.859 C 496.28 522.76 509.64 520.068 515.922 518.875 C 527.282 516.72 527.372 516.68 532.547 511.604 C 536.843 507.389 537.962 505.542 538.972 501 C 539.645 497.975 546.028 472.853 553.157 445.174 C 560.286 417.494 565.98 393.869 565.81 392.674 C 565.578 391.048 564.744 390.452 562.5 390.309 C 560.85 390.204 535.65 395.189 506.5 401.386" stroke="none" fill="#000000" fill-rule="evenodd"/>
  <path d="M 811.024 357.13 C 805.812 358.224 801.374 359.293 801.161 359.506 C 800.571 360.096 784.082 444.416 784.479 444.813 C 784.67 445.003 792.486 443.488 801.848 441.446 L 818.869 437.733 L 819.441 431.617 C 819.756 428.252 820.673 413.8 821.48 399.5 C 822.288 385.2 823.212 369.337 823.534 364.25 C 824.218 353.463 825.371 354.12 811.024 357.13" stroke="none" fill="#000000" fill-rule="evenodd"/>
  <path d="M 430 351.272 C 407.015 355.751 226.81 393.857 226.326 394.341 C 225.542 395.124 207.891 463.225 208.352 463.686 C 208.661 463.994 223.592 461.225 241.532 457.532 C 259.472 453.838 274.311 450.977 274.507 451.174 C 275.028 451.694 264.571 491.556 236.962 594.303 C 229.158 623.345 222.986 647.319 223.245 647.578 C 223.504 647.837 231.543 646.391 241.108 644.364 C 250.674 642.337 267.271 638.838 277.991 636.589 L 297.481 632.5 L 300.627 620.5 C 302.358 613.9 310.118 584.2 317.873 554.5 C 343.825 455.109 348.946 435.721 349.351 435.316 C 349.572 435.095 364.697 431.82 382.962 428.038 C 401.228 424.256 416.292 421.013 416.439 420.831 C 416.585 420.649 418.154 415.1 419.925 408.5 C 421.695 401.9 425.839 386.457 429.133 374.183 C 432.427 361.909 434.982 351.536 434.811 351.131 C 434.64 350.727 432.475 350.79 430 351.272" stroke="none" fill="#000000" fill-rule="evenodd"/>
  <path d="M 590.433 318 C 577.243 319.824 446.06 347.501 445.006 348.682 C 444.017 349.791 427.976 408.948 427.711 412.467 C 427.476 415.587 424.839 414.199 455.469 427.076 L 470.439 433.369 L 445.249 438.488 C 431.395 441.304 419.837 443.829 419.566 444.1 C 419.295 444.372 415.97 456.272 412.177 470.547 C 406.101 493.412 396.147 530.489 378.498 596 C 375.608 606.725 373.342 615.615 373.46 615.755 C 373.7 616.037 380.073 614.739 436 603.009 C 457.175 598.568 486.425 592.464 501 589.444 C 515.575 586.425 530.631 583.024 534.457 581.886 C 554.433 575.945 576.917 559.737 591.131 541.032 C 601.468 527.429 604.978 518.249 615.997 476 C 644.034 368.498 644.25 367.571 643.776 356.47 C 643.426 348.263 642.852 345.354 640.622 340.47 C 637.672 334.01 632.645 328.166 626.829 324.431 C 618.25 318.924 603.104 316.247 590.433 318" stroke="none" fill="#000000" fill-rule="evenodd"/>
  <path d="M 857 263.187 C 854.525 263.722 824.6 270.009 790.5 277.157 C 756.4 284.305 725.125 291.274 721 292.643 C 697.148 300.56 670.76 324.048 659.544 347.347 C 655.87 354.979 653.307 363.73 644.122 400 C 638.064 423.925 629.939 455.425 626.067 470 C 617.284 503.063 616.287 509.138 617.836 520.191 C 620.605 539.967 631.445 551.041 651 554.073 C 660.705 555.578 667.378 554.884 690.5 549.965 C 707.827 546.278 720.831 543.566 782.986 530.674 L 803.472 526.425 L 813.079 491.222 C 818.363 471.861 822.51 455.844 822.295 455.628 C 822.08 455.413 820.238 455.631 818.202 456.112 C 810.529 457.924 704.346 480.174 700.959 480.679 C 693.818 481.744 693.821 481.7 703.845 442.759 C 708.837 423.366 715.214 398.275 718.018 387 C 723.579 364.632 725.34 360.863 731.968 357.138 C 735.709 355.036 760.338 349.541 822.5 336.94 C 834.05 334.598 844.026 332.192 844.668 331.591 C 845.311 330.991 849.722 315.875 854.47 298 C 859.219 280.125 863.336 264.712 863.619 263.75 C 864.196 261.793 863.659 261.747 857 263.187" stroke="none" fill="#000000" fill-rule="evenodd"/>
  <path d="M 877.909 246.425 C 877.675 246.658 842.838 254.126 800.492 263.02 C 758.146 271.914 720.8 280.081 717.5 281.169 C 695.122 288.548 671.001 307.474 657.5 328.247 C 654.75 332.478 652.205 335.953 651.845 335.97 C 651.485 335.986 649.846 333.637 648.201 330.75 C 638.614 313.913 619.565 305.104 595.5 306.38 C 581.927 307.099 565.003 310.398 459.5 332.888 C 441.35 336.757 404 344.641 376.5 350.409 C 315.023 363.303 239.924 379.263 226.523 382.28 L 216.546 384.527 L 210.397 407.513 C 197.058 457.377 191.223 479.508 191.371 479.68 C 191.456 479.778 206.595 476.778 225.012 473.012 C 243.43 469.247 258.692 466.359 258.928 466.594 C 259.164 466.83 258.184 471.18 256.75 476.262 C 255.316 481.343 248.684 505.975 242.011 531 C 213.981 636.124 210.803 647.861 208.358 655.313 C 206.947 659.611 206.007 663.34 206.267 663.601 C 206.528 663.861 218.837 661.371 233.62 658.066 C 292.199 644.974 411.18 619.739 493.5 602.949 C 532.185 595.059 544.809 591.621 556.454 585.801 C 574.339 576.865 591.011 562.13 602.568 545.045 L 609.232 535.195 L 612.626 541.979 C 620.539 557.796 636.713 565.953 660.225 565.985 C 670.152 565.999 675.548 565.037 732.725 553.063 C 766.701 545.948 798.379 539.373 803.121 538.452 C 807.862 537.531 812.165 536.49 812.682 536.139 C 813.2 535.787 819.176 514.575 825.962 489 C 832.749 463.425 838.533 441.871 838.815 441.102 C 839.192 440.074 838.688 439.837 836.914 440.207 C 835.586 440.483 821.519 443.507 805.654 446.926 C 789.789 450.344 776.677 452.997 776.517 452.821 C 776.357 452.644 780.575 430.45 785.889 403.5 L 795.552 354.5 L 802.526 352.803 C 806.362 351.869 819.625 349.193 832 346.855 C 844.375 344.517 854.571 342.58 854.657 342.552 C 854.973 342.448 880 248.198 880 247.115 C 880 246.015 878.735 245.598 877.909 246.425" stroke="none" fill="#000000" fill-rule="evenodd"/>
  <path d="M 0 512.001 L 0 1024.002 512.250 1023.751 L 1024.500 1023.500 1024.751 511.750 L 1025.002 0 512.501 0 L 0 0 0 512.001 M 0.496 512.500 C 0.496 794.100, 0.610 909.151, 0.750 768.168 C 0.890 627.186, 0.890 396.786, 0.750 256.168 C 0.610 115.551, 0.496 230.900, 0.496 512.500 M 475 143.011 C 405.794 146.883, 337.924 159.796, 276 180.872 C 251.204 189.312, 234.421 196.263, 210.225 208.113 L 191.951 217.063 192.511 223.281 C 192.820 226.702, 194.636 257.625, 196.548 292 C 198.459 326.375, 200.714 366.859, 201.559 381.964 C 202.403 397.068, 203.227 409.560, 203.390 409.723 C 203.552 409.886, 205.399 403.377, 207.493 395.259 C 209.586 387.142, 211.570 380.201, 211.900 379.835 C 212.570 379.093, 239.353 373.152, 290 362.510 C 296.325 361.181, 319.725 356.231, 342 351.509 C 384.816 342.434, 466.730 325.235, 518.500 314.451 C 535.550 310.899, 555.575 306.679, 563 305.072 C 583.384 300.662, 591.967 299.668, 604.378 300.284 C 622.897 301.202, 637.413 307.662, 647.682 319.556 L 652.299 324.904 657.005 318.702 C 672.079 298.840, 696.247 281.174, 716.655 275.101 C 720.590 273.930, 746.690 268.241, 774.655 262.458 C 802.620 256.676, 826.235 251.718, 827.134 251.442 C 828.821 250.923, 828.820 250.931, 830.559 225.481 L 831.176 216.461 812.338 207.300 C 789.697 196.290, 782.393 193.117, 761.500 185.219 C 705.557 164.070, 635.098 149.092, 567.500 143.979 C 548.909 142.573, 493.246 141.990, 475 143.011 M 876.500 246.565 C 875.950 246.790, 841.075 254.215, 799 263.066 C 756.925 271.917, 719.800 280.063, 716.500 281.168 C 694.933 288.391, 672.405 306.048, 658.088 326.951 L 651.771 336.175 648.751 330.888 C 641.974 319.021, 630.161 310.730, 615.333 307.431 C 609.473 306.127, 604.881 305.866, 595.125 306.284 C 582.235 306.836, 574.990 308.195, 496 324.877 C 483.075 327.606, 449.775 334.620, 422 340.462 C 394.225 346.304, 362.950 352.887, 352.500 355.091 C 332.289 359.353, 235.331 380.010, 223.398 382.596 L 216.296 384.135 203.635 431.721 C 196.671 457.893, 191.152 479.485, 191.370 479.704 C 191.589 479.922, 206.666 477.074, 224.875 473.375 C 243.084 469.676, 258.207 466.874, 258.482 467.149 C 258.757 467.424, 257.860 471.518, 256.489 476.247 C 253.854 485.335, 244.539 519.976, 232.890 564 C 220.567 610.574, 209.142 652.328, 207.124 658.166 C 206.047 661.282, 205.358 664.025, 205.594 664.260 C 205.829 664.496, 212.430 663.194, 220.261 661.366 C 228.092 659.539, 244.175 655.974, 256 653.445 C 267.825 650.916, 291.900 645.712, 309.500 641.881 C 354.996 631.977, 458.262 610.336, 518.579 598.065 C 541.780 593.345, 554.609 588.406, 569.889 578.310 C 581.053 570.934, 595.949 555.845, 603 544.769 C 606.025 540.018, 608.725 536.123, 609 536.115 C 609.275 536.107, 610.726 538.692, 612.225 541.860 C 615.970 549.776, 622.729 556.326, 631.368 560.410 C 641.298 565.104, 647.767 566.436, 660.500 566.407 C 670.754 566.384, 675.906 565.453, 736.500 552.678 C 772.250 545.140, 804.200 538.414, 807.500 537.731 C 813.289 536.532, 813.542 536.348, 814.691 532.494 C 817.032 524.646, 839 441.174, 839 440.129 C 839 439.542, 838.390 439.297, 837.645 439.583 C 833.505 441.171, 777.448 452.599, 777.181 451.909 C 777.005 451.456, 780.508 432.503, 784.964 409.792 C 789.421 387.082, 793.533 366.025, 794.102 363 C 794.672 359.975, 795.347 356.759, 795.604 355.853 C 795.972 354.551, 802.239 353.001, 825.506 348.457 L 854.943 342.707 856.407 337.604 C 857.212 334.797, 862.896 313.629, 869.038 290.564 C 875.181 267.499, 880.433 248.036, 880.710 247.314 C 881.194 246.053, 878.801 245.628, 876.500 246.565 M 804 274.618 C 713.801 293.549, 715.967 292.941, 699.342 303.982 C 673.638 321.054, 658.877 341.772, 651.949 370.500 C 650.225 377.650, 642.975 406, 635.838 433.500 C 628.701 461, 621.719 488, 620.323 493.500 C 618.118 502.185, 617.845 505.012, 618.246 515 C 619.012 534.061, 624.592 543.637, 638.811 550.293 C 644.916 553.151, 646.548 553.456, 657.500 553.786 C 668.842 554.128, 670.816 553.868, 693.500 549.040 C 706.700 546.230, 736.400 540.053, 759.500 535.313 C 782.600 530.574, 802.012 526.202, 802.638 525.598 C 803.973 524.309, 822.383 457.050, 821.612 456.279 C 821.324 455.991, 794.016 461.460, 760.927 468.433 C 727.838 475.405, 699.580 480.973, 698.132 480.805 C 696.313 480.594, 695.404 479.829, 695.190 478.325 C 695.020 477.129, 699.157 459.579, 704.384 439.325 C 709.611 419.071, 715.723 395.075, 717.965 386 C 722.747 366.645, 724.231 362.882, 728.588 359.057 C 732.643 355.497, 734.581 354.879, 755.500 350.479 C 781.277 345.057, 844.199 332, 844.549 332 C 845.371 332, 863.195 265.136, 862.798 263.541 C 862.589 262.697, 845.123 265.987, 804 274.618 M 829.500 280.029 C 819.600 282.159, 792.315 287.941, 768.868 292.878 C 739.133 299.138, 724.101 302.761, 719.182 304.855 C 696.044 314.701, 672.376 338.090, 666.103 357.310 C 664.992 360.714, 660.668 377, 656.495 393.500 C 652.322 410, 644.204 441.534, 638.454 463.575 C 629.168 499.172, 628.001 504.590, 628.006 512.075 C 628.012 522.002, 628.972 525.989, 632.810 532.035 C 638.451 540.919, 652.275 545.216, 668.342 543.078 C 672.865 542.476, 696.126 537.909, 720.033 532.929 C 743.940 527.949, 770.535 522.475, 779.134 520.765 L 794.769 517.656 797.995 506.078 C 799.770 499.710, 802.714 488.988, 804.536 482.250 C 808.242 468.554, 808.475 469.127, 800 471.093 C 795.444 472.150, 774.097 476.610, 726.078 486.538 C 711.546 489.542, 698.226 492, 696.476 492 C 691.824 492, 686.758 488.176, 685.097 483.411 C 683.779 479.629, 683.915 478.549, 687.349 465.443 C 689.358 457.775, 695.966 431.992, 702.033 408.149 C 708.099 384.305, 713.996 362.930, 715.136 360.649 C 718.271 354.374, 724.739 348.240, 730.468 346.107 C 733.235 345.077, 744.275 342.391, 755 340.140 C 777.742 335.365, 825.489 325.541, 831.969 324.303 L 836.437 323.449 838.758 315.475 C 841.626 305.623, 848.988 277.772, 848.995 276.750 C 849.001 275.776, 850.223 275.571, 829.500 280.029 M 584.500 319.112 C 551.657 325.698, 445.662 348.087, 445.154 348.546 C 444.512 349.126, 427.011 414.344, 427.394 414.728 C 427.603 414.937, 435.812 418.489, 445.637 422.622 C 455.462 426.755, 465.032 430.787, 466.904 431.581 C 468.775 432.376, 470.085 433.248, 469.813 433.520 C 469.542 433.791, 458.151 436.257, 444.500 439 C 430.849 441.743, 419.585 444.102, 419.469 444.243 C 419.354 444.384, 416.732 454.175, 413.643 466 C 410.554 477.825, 400.356 516.022, 390.980 550.883 C 381.604 585.743, 374.176 614.510, 374.474 614.808 C 375.160 615.493, 376.651 615.200, 434.500 603.024 C 460.900 597.467, 493.525 590.648, 507 587.871 C 520.483 585.092, 535.322 581.389, 540 579.636 C 565.393 570.121, 588.485 549.102, 600.572 524.500 C 605.093 515.299, 607.031 509.412, 612.423 488.500 C 615.968 474.750, 623.617 445.320, 629.421 423.099 C 643.179 370.419, 644.423 364.522, 643.663 355.576 C 642.493 341.814, 638.752 334.012, 630.005 327.098 C 621.923 320.709, 615.491 318.748, 601.500 318.404 C 594.900 318.242, 587.250 318.561, 584.500 319.112 M 586 329.663 C 579.316 330.967, 453.720 357.262, 453.323 357.441 C 453.226 357.485, 450.238 368.028, 446.685 380.870 L 440.224 404.220 444.309 403.567 C 446.555 403.207, 473.168 397.771, 503.447 391.485 C 533.726 385.200, 560.355 379.771, 562.622 379.421 C 567.686 378.640, 573.089 380.927, 575.105 384.704 C 577.602 389.382, 576.328 396.971, 567.162 432 C 562.197 450.975, 555.814 475.725, 552.978 487 C 550.079 498.528, 546.681 509.609, 545.215 512.319 C 542.016 518.230, 537.196 522.580, 530.546 525.556 C 525.264 527.919, 455.273 542.607, 454.236 541.569 C 453.914 541.247, 456.485 530.300, 459.949 517.242 C 473.319 466.836, 479.123 443.789, 478.582 443.248 C 477.749 442.416, 429.694 452.138, 428.351 453.411 C 427.719 454.010, 425.331 461.475, 423.045 470 C 400.539 553.900, 388.013 601.346, 388.294 601.627 C 388.480 601.813, 407.052 598.133, 429.566 593.448 C 452.080 588.764, 483.550 582.246, 499.500 578.964 C 515.450 575.682, 531.875 571.822, 536 570.386 C 556.500 563.249, 575.573 547.005, 588.598 525.589 C 594.624 515.681, 596.092 511.132, 607.502 467 C 612.266 448.575, 620.050 418.875, 624.800 401 C 632.364 372.535, 633.441 367.445, 633.468 360 C 633.519 346.292, 628.632 337.422, 618.208 332.303 C 613.002 329.747, 611.444 329.486, 600.500 329.338 C 593.900 329.249, 587.375 329.395, 586 329.663 M 405.500 356.561 C 322.620 373.759, 227.569 394.125, 226.820 394.846 C 226.446 395.206, 224.341 402.250, 222.142 410.500 C 219.943 418.750, 215.858 434.009, 213.064 444.408 C 210.270 454.808, 208.147 463.480, 208.347 463.680 C 208.546 463.880, 222.917 461.109, 240.281 457.522 C 271.521 451.069, 275 450.471, 275 451.558 C 275 453.263, 233.580 609.107, 223.225 646.364 C 222.819 647.827, 223.115 648.102, 224.604 647.645 C 226.669 647.011, 250.355 641.999, 278 636.346 C 287.625 634.377, 296.027 632.257, 296.671 631.634 C 297.315 631.010, 300.613 619.700, 304.001 606.500 C 310.121 582.655, 316.124 559.608, 336.431 482 C 342.260 459.725, 347.363 440.197, 347.772 438.604 C 348.181 437.012, 349.187 435.338, 350.008 434.885 C 350.828 434.432, 365.890 431.110, 383.478 427.503 C 401.066 423.895, 415.734 420.619, 416.072 420.222 C 416.411 419.825, 420.606 404.875, 425.395 387 C 430.184 369.125, 434.334 353.712, 434.618 352.750 C 435.322 350.364, 435.436 350.349, 405.500 356.561 M 810.179 356.973 C 805.603 357.946, 801.491 359.137, 801.043 359.621 C 799.920 360.832, 783.676 444.010, 784.418 444.751 C 785.017 445.351, 813.333 439.584, 817.418 438.031 C 819.730 437.152, 819.915 435.034, 823.688 366.250 L 824.306 355 821.403 355.102 C 819.806 355.158, 814.756 356, 810.179 356.973 M 399 368.666 C 389.925 370.587, 367.875 375.291, 350 379.119 C 332.125 382.947, 301.525 389.402, 282 393.464 C 262.475 397.525, 243.833 401.447, 240.574 402.180 L 234.648 403.513 228.498 426.507 C 223.319 445.869, 222.597 449.539, 223.924 449.744 C 224.791 449.878, 239.675 447.107, 257 443.586 C 274.325 440.066, 288.645 437.326, 288.823 437.499 C 289.180 437.846, 281.504 467.705, 268.513 516.500 C 249.893 586.436, 237.822 633.155, 238.259 633.592 C 238.512 633.845, 249.869 631.697, 263.497 628.819 L 288.275 623.585 289.523 620.543 C 290.209 618.869, 293.126 608.275, 296.004 597 C 298.882 585.725, 309.454 545.210, 319.498 506.966 C 329.542 468.723, 338.334 434.869, 339.035 431.735 C 339.829 428.185, 340.911 425.858, 341.905 425.564 C 344.710 424.732, 396.322 414.217, 401.085 413.506 C 403.606 413.130, 406.233 412.474, 406.922 412.049 C 407.610 411.623, 410.554 402.550, 413.464 391.887 C 416.373 381.224, 419.223 370.813, 419.796 368.750 C 420.816 365.083, 420.780 365.002, 418.169 365.087 C 416.701 365.135, 408.075 366.746, 399 368.666 M 504.745 401.440 C 475.730 407.620, 451.745 412.922, 451.444 413.223 C 451.143 413.523, 455.983 415.893, 462.199 418.488 C 487.336 428.985, 492 431.220, 492 432.766 C 492 434.117, 471.737 513.672, 469.019 522.993 C 467.394 528.564, 467.629 529.312, 470.750 528.514 C 472.262 528.128, 485.425 525.362, 500 522.367 C 529.306 516.346, 532.050 515.244, 536.345 507.772 C 537.696 505.423, 539.504 500.350, 540.364 496.500 C 541.223 492.650, 547.544 467.762, 554.411 441.194 C 561.277 414.626, 566.645 392.239, 566.340 391.444 C 565.971 390.481, 564.405 390.034, 561.643 390.102 C 559.364 390.158, 533.760 395.260, 504.745 401.440 M 231.971 477.540 C 223.429 479.335, 214.564 481.309, 212.271 481.927 L 208.100 483.050 208.575 487.775 C 208.836 490.374, 210.157 512.750, 211.510 537.500 C 215.200 604.972, 215.209 605.124, 215.721 604.612 C 216.263 604.070, 221.684 584.287, 232.604 543 C 236.750 527.325, 241.881 508.200, 244.007 500.500 C 248.057 485.828, 249.787 475.575, 248.350 474.759 C 247.883 474.494, 240.512 475.745, 231.971 477.540 M 790.824 546.853 C 781.102 548.859, 772.933 550.725, 772.672 551 C 772.410 551.275, 771.007 571.075, 769.554 595 C 768.101 618.925, 766.703 639.494, 766.447 640.710 C 766.019 642.743, 765.323 642.943, 757.741 643.210 L 749.500 643.500 749.394 668 L 749.288 692.500 735.394 703.235 L 721.500 713.970 700.750 713.985 L 680 714 680 679 L 680 644 645 644 L 610 644 610 679.004 L 610 714.008 575.407 713.897 C 555.149 713.831, 540.428 714.172, 539.881 714.719 C 539.328 715.272, 539.060 729.370, 539.224 749.252 L 539.500 782.851 536.625 783.425 C 535.044 783.741, 519.181 784, 501.375 784 L 469 784 469 749 L 469 714 504.500 714 L 540 714 540 679 L 540 644 503.976 644 L 467.952 644 468.027 678.750 L 468.101 713.500 433.551 713.763 L 399 714.026 399 679.013 L 399 644 364 644 L 329 644 329 678.358 L 329 712.715 322.853 713.358 C 319.473 713.711, 313.572 714, 309.741 714 L 302.776 714 282.138 698.833 C 270.787 690.490, 260.964 683.015, 260.309 682.221 C 259.488 681.228, 259.253 677.529, 259.552 670.355 C 259.901 661.980, 259.708 659.825, 258.566 659.387 C 257.785 659.087, 248.501 660.766, 237.935 663.119 L 218.724 667.395 219.357 676.948 C 219.705 682.201, 219.992 690.009, 219.995 694.298 C 220.001 703.528, 218.681 701.930, 239.360 717.753 C 296.036 761.119, 374.771 812.448, 441 849.206 C 467.769 864.063, 511.360 887, 512.827 887 C 514.005 887, 542.105 872.324, 564.427 860.051 C 641.412 817.720, 714.261 770.810, 781.644 720.177 L 803.787 703.537 804.394 697.019 C 805.125 689.171, 809.324 620.417, 811.449 581.500 C 812.290 566.100, 813.212 551.138, 813.498 548.250 C 814.013 543.041, 813.996 543.001, 811.259 543.103 C 809.741 543.160, 800.546 544.848, 790.824 546.853 M 329 723.347 L 329 732.694 350.250 746.714 C 372.363 761.303, 395.213 775.761, 397.610 776.681 C 398.779 777.129, 399 772.178, 399 745.607 L 399 714 364 714 L 329 714 329 723.347 M 611 748.500 L 611 783 613.214 783 C 615.371 783, 633.816 771.798, 664.750 751.702 L 680 741.795 680 727.898 L 680 714 645.500 714 L 611 714 611 748.500 M 411 784.410 C 411 785.389, 466.776 818, 468.450 818 C 468.752 818, 469 810.350, 469 801 L 469 784 440 784 C 424.050 784, 411 784.185, 411 784.410 M 540 805.107 C 540 822.830, 540.225 826.127, 541.406 825.674 C 543.618 824.826, 591.532 797.293, 601.250 791.287 C 606.063 788.313, 610 785.456, 610 784.939 C 610 784.371, 596.162 784, 575 784 L 540 784 540 805.107" stroke="none" fill="#f9fafa" fill-rule="evenodd"/>
  <path d="M 540.611 609.682 L 540.611 644.695 L 574.861 644.432 L 609.111 644.169 L 609.401 609.419 L 609.691 574.669 L 575.151 574.669 L 540.611 584.836 L 540.611 609.682" stroke="none" fill-rule="evenodd" fill="#000000" style="stroke-width: 1;"/>
  <path d="M 526.75 142.723 C 528.538 142.945 531.462 142.945 533.25 142.723 C 535.038 142.502 533.575 142.32 530 142.32 C 526.425 142.32 524.962 142.502 526.75 142.723" stroke="none" fill-rule="evenodd" fill="#01a2e1"/>
  <path d="M 539.449 748.5 C 539.449 767.2 539.584 774.709 539.749 765.186 C 539.913 755.663 539.913 740.363 539.748 731.186 C 539.583 722.009 539.449 729.8 539.449 748.5" stroke="none" fill-rule="evenodd" fill="#01a2e1"/>
  <path d="M 610.45 748 C 610.45 766.975 610.584 774.737 610.748 765.25 C 610.913 755.763 610.913 740.237 610.748 730.75 C 610.584 721.263 610.45 729.025 610.45 748" stroke="none" fill-rule="evenodd" fill="#01a2e1"/>
  <path d="M 749.37 681 C 749.37 686.775 749.535 689.138 749.737 686.25 C 749.939 683.362 749.939 678.638 749.737 675.75 C 749.535 672.862 749.37 675.225 749.37 681" stroke="none" fill-rule="evenodd" fill="#01a2e1"/>
  <path d="M 468.45 678 C 468.45 696.975 468.584 704.737 468.748 695.25 C 468.913 685.763 468.913 670.237 468.748 660.75 C 468.584 651.263 468.45 659.025 468.45 678" stroke="none" fill-rule="evenodd" fill="#01a2e1"/>
  <path d="M 766 641.793 C 766 642.513 763.028 643.024 757.75 643.21 L 749.5 643.5 L 749.432 651.253 L 749.365 659.007 L 749.725 651.503 L 750.084 644 L 757.983 644 C 765.127 644 768.32 642.987 766.6 641.267 C 766.27 640.937 766 641.173 766 641.793" stroke="none" fill-rule="evenodd" fill="#01a2e1"/>
  <path d="M 399 368.666 C 389.925 370.587 367.875 375.291 350 379.119 C 332.125 382.947 301.525 389.402 282 393.464 C 262.475 397.525 243.833 401.447 240.574 402.18 L 234.648 403.513 L 228.498 426.507 C 223.319 445.869 222.597 449.539 223.924 449.744 C 224.791 449.878 239.675 447.107 257 443.586 C 274.325 440.066 288.645 437.326 288.823 437.499 C 289.18 437.846 281.504 467.705 268.513 516.5 C 249.893 586.436 237.822 633.155 238.259 633.592 C 238.512 633.845 249.869 631.697 263.497 628.819 L 288.275 623.585 L 289.523 620.543 C 290.209 618.869 293.126 608.275 296.004 597 C 298.882 585.725 309.454 545.21 319.498 506.966 C 329.542 468.723 338.334 434.869 339.035 431.735 C 339.829 428.185 340.911 425.858 341.905 425.564 C 344.71 424.732 396.322 414.217 401.085 413.506 C 403.606 413.13 406.233 412.474 406.922 412.049 C 407.61 411.623 410.554 402.55 413.464 391.887 C 416.373 381.224 419.223 370.813 419.796 368.75 C 420.816 365.083 420.78 365.002 418.169 365.087 C 416.701 365.135 408.075 366.746 399 368.666" stroke="none" fill-rule="evenodd" style="fill: rgb(85, 181, 229);"/>
  <path d="M 586 329.663 C 579.316 330.967 453.72 357.262 453.323 357.441 C 453.226 357.485 450.238 368.028 446.685 380.87 L 440.224 404.22 L 444.309 403.567 C 446.555 403.207 473.168 397.771 503.447 391.485 C 533.726 385.2 560.355 379.771 562.622 379.421 C 567.686 378.64 573.089 380.927 575.105 384.704 C 577.602 389.382 576.328 396.971 567.162 432 C 562.197 450.975 555.814 475.725 552.978 487 C 550.079 498.528 546.681 509.609 545.215 512.319 C 542.016 518.23 537.196 522.58 530.546 525.556 C 525.264 527.919 455.273 542.607 454.236 541.569 C 453.914 541.247 456.485 530.3 459.949 517.242 C 473.319 466.836 479.123 443.789 478.582 443.248 C 477.749 442.416 429.694 452.138 428.351 453.411 C 427.719 454.01 425.331 461.475 423.045 470 C 400.539 553.9 388.013 601.346 388.294 601.627 C 388.48 601.813 407.052 598.133 429.566 593.448 C 452.08 588.764 483.55 582.246 499.5 578.964 C 515.45 575.682 531.875 571.822 536 570.386 C 556.5 563.249 575.573 547.005 588.598 525.589 C 594.624 515.681 596.092 511.132 607.502 467 C 612.266 448.575 620.05 418.875 624.8 401 C 632.364 372.535 633.441 367.445 633.468 360 C 633.519 346.292 628.632 337.422 618.208 332.303 C 613.002 329.747 611.444 329.486 600.5 329.338 C 593.9 329.249 587.375 329.395 586 329.663" stroke="none" fill-rule="evenodd" style="fill: rgb(86, 181, 229);"/>
  <path d="M 829.5 280.029 C 819.6 282.159 792.315 287.941 768.868 292.878 C 739.133 299.138 724.101 302.761 719.182 304.855 C 696.044 314.701 672.376 338.09 666.103 357.31 C 664.992 360.714 660.668 377 656.495 393.5 C 652.322 410 644.204 441.534 638.454 463.575 C 629.168 499.172 628.001 504.59 628.006 512.075 C 628.012 522.002 628.972 525.989 632.81 532.035 C 638.451 540.919 652.275 545.216 668.342 543.078 C 672.865 542.476 696.126 537.909 720.033 532.929 C 743.94 527.949 770.535 522.475 779.134 520.765 L 794.769 517.656 L 797.995 506.078 C 799.77 499.71 802.714 488.988 804.536 482.25 C 808.242 468.554 808.475 469.127 800 471.093 C 795.444 472.15 774.097 476.61 726.078 486.538 C 711.546 489.542 698.226 492 696.476 492 C 691.824 492 686.758 488.176 685.097 483.411 C 683.779 479.629 683.915 478.549 687.349 465.443 C 689.358 457.775 695.966 431.992 702.033 408.149 C 708.099 384.305 713.996 362.93 715.136 360.649 C 718.271 354.374 724.739 348.24 730.468 346.107 C 733.235 345.077 744.275 342.391 755 340.14 C 777.742 335.365 825.489 325.541 831.969 324.303 L 836.437 323.449 L 838.758 315.475 C 841.626 305.623 848.988 277.772 848.995 276.75 C 849.001 275.776 850.223 275.571 829.5 280.029" stroke="none" fill-rule="evenodd" style="fill: rgb(86, 181, 229);"/>
  <path d="M 609.611 539.427 L 609.611 574.934 L 644.619 574.667 L 679.631 574.401 L 679.927 539.16 L 680.223 556.604 L 645.486 559.777 L 609.611 530.141 L 609.611 539.427" stroke="none" fill-rule="evenodd" fill="#000000" style="stroke-width: 1;"/>
  <path d="M 679.727 609.208 L 679.727 644.715 L 714.735 644.448 L 749.747 644.182 L 750.043 608.941 L 750.339 573.701 L 715.031 573.701 L 679.727 573.701 L 679.727 609.208" stroke="none" fill-rule="evenodd" fill="#000000" style="stroke-width: 1;"/>
  <path d="M 398.482 625.647 L 398.482 644.846 L 434.118 644.702 L 469.754 644.558 L 470.056 625.502 L 470.357 606.448 L 434.419 606.448 L 398.482 613.674 L 398.482 625.647" stroke="none" fill-rule="evenodd" fill="#000000" style="stroke-width: 1;"/>
</svg>